<mxfile host="app.diagrams.net" agent="Mozilla/5.0 (Macintosh; Intel Mac OS X 10_15_7) AppleWebKit/537.36 (KHTML, like Gecko) Chrome/136.0.0.0 Safari/537.36" version="27.0.6">
  <diagram name="Page-1" id="03018318-947c-dd8e-b7a3-06fadd420f32">
    <mxGraphModel dx="1234" dy="695" grid="1" gridSize="10" guides="1" tooltips="1" connect="1" arrows="1" fold="1" page="1" pageScale="1" pageWidth="1100" pageHeight="850" background="none" math="0" shadow="0">
      <root>
        <mxCell id="0" />
        <mxCell id="1" parent="0" />
        <mxCell id="677b7b8949515195-1" value="" style="whiteSpace=wrap;html=1;rounded=0;shadow=0;labelBackgroundColor=none;strokeColor=#000000;strokeWidth=1;fillColor=none;fontFamily=Verdana;fontSize=12;fontColor=#000000;align=center;comic=1;" parent="1" vertex="1">
          <mxGeometry x="20" y="20" width="1060" height="810" as="geometry" />
        </mxCell>
        <mxCell id="677b7b8949515195-2" value="&lt;font style=&quot;font-size: 26px;&quot;&gt;Department 1&lt;/font&gt;" style="whiteSpace=wrap;html=1;rounded=0;shadow=0;labelBackgroundColor=none;strokeWidth=1;fontFamily=Verdana;fontSize=28;align=left;comic=1;" parent="1" vertex="1">
          <mxGeometry x="240" y="60" width="530" height="50" as="geometry" />
        </mxCell>
        <mxCell id="677b7b8949515195-9" value="" style="line;strokeWidth=1;html=1;rounded=0;shadow=0;labelBackgroundColor=none;fillColor=none;fontFamily=Verdana;fontSize=14;fontColor=#000000;align=center;comic=1;" parent="1" vertex="1">
          <mxGeometry x="20" y="140" width="1060" height="10" as="geometry" />
        </mxCell>
        <mxCell id="D4387LzBOyRyEtpYUrrS-1" value="" style="whiteSpace=wrap;html=1;rounded=0;shadow=0;labelBackgroundColor=none;strokeColor=#000000;strokeWidth=1;fillColor=none;fontFamily=Verdana;fontSize=12;fontColor=#000000;align=center;comic=1;" parent="1" vertex="1">
          <mxGeometry x="200" y="150" width="740" height="680" as="geometry" />
        </mxCell>
        <mxCell id="tWjhZalJogzZELkhNnRg-33" value="" style="shape=table;startSize=0;container=1;collapsible=0;childLayout=tableLayout;" vertex="1" parent="1">
          <mxGeometry x="265" y="180" width="610" height="120" as="geometry" />
        </mxCell>
        <mxCell id="tWjhZalJogzZELkhNnRg-34" value="" style="shape=tableRow;horizontal=0;startSize=0;swimlaneHead=0;swimlaneBody=0;strokeColor=inherit;top=0;left=0;bottom=0;right=0;collapsible=0;dropTarget=0;fillColor=none;points=[[0,0.5],[1,0.5]];portConstraint=eastwest;" vertex="1" parent="tWjhZalJogzZELkhNnRg-33">
          <mxGeometry width="610" height="40" as="geometry" />
        </mxCell>
        <mxCell id="tWjhZalJogzZELkhNnRg-35" value="Peter" style="shape=partialRectangle;html=1;whiteSpace=wrap;connectable=0;strokeColor=inherit;overflow=hidden;fillColor=none;top=0;left=0;bottom=0;right=0;pointerEvents=1;" vertex="1" parent="tWjhZalJogzZELkhNnRg-34">
          <mxGeometry width="122" height="40" as="geometry">
            <mxRectangle width="122" height="40" as="alternateBounds" />
          </mxGeometry>
        </mxCell>
        <mxCell id="tWjhZalJogzZELkhNnRg-36" value="Foo" style="shape=partialRectangle;html=1;whiteSpace=wrap;connectable=0;strokeColor=inherit;overflow=hidden;fillColor=none;top=0;left=0;bottom=0;right=0;pointerEvents=1;" vertex="1" parent="tWjhZalJogzZELkhNnRg-34">
          <mxGeometry x="122" width="122" height="40" as="geometry">
            <mxRectangle width="122" height="40" as="alternateBounds" />
          </mxGeometry>
        </mxCell>
        <mxCell id="tWjhZalJogzZELkhNnRg-37" value="Street 123, Vienna" style="shape=partialRectangle;html=1;whiteSpace=wrap;connectable=0;strokeColor=inherit;overflow=hidden;fillColor=none;top=0;left=0;bottom=0;right=0;pointerEvents=1;" vertex="1" parent="tWjhZalJogzZELkhNnRg-34">
          <mxGeometry x="244" width="122" height="40" as="geometry">
            <mxRectangle width="122" height="40" as="alternateBounds" />
          </mxGeometry>
        </mxCell>
        <mxCell id="tWjhZalJogzZELkhNnRg-38" value="peter.foo@email.com / 0043 123456" style="shape=partialRectangle;html=1;whiteSpace=wrap;connectable=0;strokeColor=inherit;overflow=hidden;fillColor=none;top=0;left=0;bottom=0;right=0;pointerEvents=1;" vertex="1" parent="tWjhZalJogzZELkhNnRg-34">
          <mxGeometry x="366" width="124" height="40" as="geometry">
            <mxRectangle width="124" height="40" as="alternateBounds" />
          </mxGeometry>
        </mxCell>
        <mxCell id="tWjhZalJogzZELkhNnRg-39" value="&lt;u&gt;Delete&lt;/u&gt;" style="shape=partialRectangle;html=1;whiteSpace=wrap;connectable=0;strokeColor=inherit;overflow=hidden;fillColor=none;top=0;left=0;bottom=0;right=0;pointerEvents=1;" vertex="1" parent="tWjhZalJogzZELkhNnRg-34">
          <mxGeometry x="490" width="120" height="40" as="geometry">
            <mxRectangle width="120" height="40" as="alternateBounds" />
          </mxGeometry>
        </mxCell>
        <mxCell id="tWjhZalJogzZELkhNnRg-40" value="" style="shape=tableRow;horizontal=0;startSize=0;swimlaneHead=0;swimlaneBody=0;strokeColor=inherit;top=0;left=0;bottom=0;right=0;collapsible=0;dropTarget=0;fillColor=none;points=[[0,0.5],[1,0.5]];portConstraint=eastwest;" vertex="1" parent="tWjhZalJogzZELkhNnRg-33">
          <mxGeometry y="40" width="610" height="40" as="geometry" />
        </mxCell>
        <mxCell id="tWjhZalJogzZELkhNnRg-41" value="..." style="shape=partialRectangle;html=1;whiteSpace=wrap;connectable=0;strokeColor=inherit;overflow=hidden;fillColor=none;top=0;left=0;bottom=0;right=0;pointerEvents=1;" vertex="1" parent="tWjhZalJogzZELkhNnRg-40">
          <mxGeometry width="122" height="40" as="geometry">
            <mxRectangle width="122" height="40" as="alternateBounds" />
          </mxGeometry>
        </mxCell>
        <mxCell id="tWjhZalJogzZELkhNnRg-42" value="" style="shape=partialRectangle;html=1;whiteSpace=wrap;connectable=0;strokeColor=inherit;overflow=hidden;fillColor=none;top=0;left=0;bottom=0;right=0;pointerEvents=1;" vertex="1" parent="tWjhZalJogzZELkhNnRg-40">
          <mxGeometry x="122" width="122" height="40" as="geometry">
            <mxRectangle width="122" height="40" as="alternateBounds" />
          </mxGeometry>
        </mxCell>
        <mxCell id="tWjhZalJogzZELkhNnRg-43" value="" style="shape=partialRectangle;html=1;whiteSpace=wrap;connectable=0;strokeColor=inherit;overflow=hidden;fillColor=none;top=0;left=0;bottom=0;right=0;pointerEvents=1;" vertex="1" parent="tWjhZalJogzZELkhNnRg-40">
          <mxGeometry x="244" width="122" height="40" as="geometry">
            <mxRectangle width="122" height="40" as="alternateBounds" />
          </mxGeometry>
        </mxCell>
        <mxCell id="tWjhZalJogzZELkhNnRg-44" value="" style="shape=partialRectangle;html=1;whiteSpace=wrap;connectable=0;strokeColor=inherit;overflow=hidden;fillColor=none;top=0;left=0;bottom=0;right=0;pointerEvents=1;" vertex="1" parent="tWjhZalJogzZELkhNnRg-40">
          <mxGeometry x="366" width="124" height="40" as="geometry">
            <mxRectangle width="124" height="40" as="alternateBounds" />
          </mxGeometry>
        </mxCell>
        <mxCell id="tWjhZalJogzZELkhNnRg-45" value="" style="shape=partialRectangle;html=1;whiteSpace=wrap;connectable=0;strokeColor=inherit;overflow=hidden;fillColor=none;top=0;left=0;bottom=0;right=0;pointerEvents=1;" vertex="1" parent="tWjhZalJogzZELkhNnRg-40">
          <mxGeometry x="490" width="120" height="40" as="geometry">
            <mxRectangle width="120" height="40" as="alternateBounds" />
          </mxGeometry>
        </mxCell>
        <mxCell id="tWjhZalJogzZELkhNnRg-46" value="" style="shape=tableRow;horizontal=0;startSize=0;swimlaneHead=0;swimlaneBody=0;strokeColor=inherit;top=0;left=0;bottom=0;right=0;collapsible=0;dropTarget=0;fillColor=none;points=[[0,0.5],[1,0.5]];portConstraint=eastwest;" vertex="1" parent="tWjhZalJogzZELkhNnRg-33">
          <mxGeometry y="80" width="610" height="40" as="geometry" />
        </mxCell>
        <mxCell id="tWjhZalJogzZELkhNnRg-47" value="" style="shape=partialRectangle;html=1;whiteSpace=wrap;connectable=0;strokeColor=inherit;overflow=hidden;fillColor=none;top=0;left=0;bottom=0;right=0;pointerEvents=1;" vertex="1" parent="tWjhZalJogzZELkhNnRg-46">
          <mxGeometry width="122" height="40" as="geometry">
            <mxRectangle width="122" height="40" as="alternateBounds" />
          </mxGeometry>
        </mxCell>
        <mxCell id="tWjhZalJogzZELkhNnRg-48" value="" style="shape=partialRectangle;html=1;whiteSpace=wrap;connectable=0;strokeColor=inherit;overflow=hidden;fillColor=none;top=0;left=0;bottom=0;right=0;pointerEvents=1;" vertex="1" parent="tWjhZalJogzZELkhNnRg-46">
          <mxGeometry x="122" width="122" height="40" as="geometry">
            <mxRectangle width="122" height="40" as="alternateBounds" />
          </mxGeometry>
        </mxCell>
        <mxCell id="tWjhZalJogzZELkhNnRg-49" value="" style="shape=partialRectangle;html=1;whiteSpace=wrap;connectable=0;strokeColor=inherit;overflow=hidden;fillColor=none;top=0;left=0;bottom=0;right=0;pointerEvents=1;" vertex="1" parent="tWjhZalJogzZELkhNnRg-46">
          <mxGeometry x="244" width="122" height="40" as="geometry">
            <mxRectangle width="122" height="40" as="alternateBounds" />
          </mxGeometry>
        </mxCell>
        <mxCell id="tWjhZalJogzZELkhNnRg-50" value="" style="shape=partialRectangle;html=1;whiteSpace=wrap;connectable=0;strokeColor=inherit;overflow=hidden;fillColor=none;top=0;left=0;bottom=0;right=0;pointerEvents=1;" vertex="1" parent="tWjhZalJogzZELkhNnRg-46">
          <mxGeometry x="366" width="124" height="40" as="geometry">
            <mxRectangle width="124" height="40" as="alternateBounds" />
          </mxGeometry>
        </mxCell>
        <mxCell id="tWjhZalJogzZELkhNnRg-51" value="" style="shape=partialRectangle;html=1;whiteSpace=wrap;connectable=0;strokeColor=inherit;overflow=hidden;fillColor=none;top=0;left=0;bottom=0;right=0;pointerEvents=1;" vertex="1" parent="tWjhZalJogzZELkhNnRg-46">
          <mxGeometry x="490" width="120" height="40" as="geometry">
            <mxRectangle width="120" height="40" as="alternateBounds" />
          </mxGeometry>
        </mxCell>
        <mxCell id="tWjhZalJogzZELkhNnRg-54" value="&lt;font style=&quot;font-size: 17px;&quot;&gt;Add Employee&lt;/font&gt;" style="whiteSpace=wrap;html=1;rounded=0;shadow=0;labelBackgroundColor=none;strokeWidth=1;fontFamily=Verdana;fontSize=28;align=center;comic=1;" vertex="1" parent="1">
          <mxGeometry x="735" y="320" width="140" height="30" as="geometry" />
        </mxCell>
      </root>
    </mxGraphModel>
  </diagram>
</mxfile>
